<?xml version="1.0" encoding="utf-8"?>
<!-- Generator: Adobe Illustrator 16.0.4, SVG Export Plug-In . SVG Version: 6.00 Build 0)  -->
<!DOCTYPE svg PUBLIC "-//W3C//DTD SVG 1.1//EN" "http://www.w3.org/Graphics/SVG/1.1/DTD/svg11.dtd">
<svg version="1.1" id="Layer_1" xmlns="http://www.w3.org/2000/svg" xmlns:xlink="http://www.w3.org/1999/xlink" x="0px" y="0px"
	 width="280px" height="66px" viewBox="0 0 280 66" enable-background="new 0 0 280 66" xml:space="preserve">
<g>
	<path fill="#fff" d="M120.088,50.249c-1-0.228-2.161-1.098-2.29-2.582c-0.549,1.679-2.291,2.582-4.163,2.582
		c-2.807,0-4.679-1.904-4.679-4.293c0-2.838,2.259-4.322,4.743-4.549l3.84-0.354v-1.388c0-1.808-1.258-2.903-3.452-2.903
		c-1.452,0-2.937,0.45-3.872,1.097l-0.42-1.711c1.13-0.773,2.646-1.16,4.389-1.16c3.13,0,5.421,1.742,5.421,4.872v6.679
		c0,1.453,0.871,2.228,1.807,2.389L120.088,50.249z M117.539,42.763l-3.452,0.322c-2.033,0.193-3.162,1.291-3.162,2.871
		c0,1.453,1.193,2.551,2.871,2.551c1.872,0,3.743-1.42,3.743-3.776V42.763z"/>
	<path fill="#fff" d="M133.218,29.114c-0.581-0.258-1.452-0.419-2.13-0.419c-2.451,0-4.033,1.419-4.033,4.452v2.162h4.938
		l-0.42,1.678h-4.518v12.938h-2.064V36.987h-2.582V35.31h2.582v-2.259c0-4.099,2.452-6.099,6.001-6.099
		c1.065,0,2.001,0.129,2.679,0.418L133.218,29.114z"/>
	<path fill="#fff" d="M143.961,29.114c-0.58-0.258-1.452-0.419-2.13-0.419c-2.452,0-4.033,1.419-4.033,4.452v2.162h4.938
		l-0.42,1.678h-4.519v12.938h-2.064V36.987h-2.582V35.31h2.582v-2.259c0-4.099,2.452-6.099,6.002-6.099c1.062,0,2,0.129,2.678,0.418
		L143.961,29.114z"/>
	<path fill="#fff" d="M146.669,32.405c-0.452,0-1.42-0.968-1.42-1.42c0-0.482,0.968-1.42,1.42-1.42c0.483,0,1.42,0.938,1.42,1.42
		C148.089,31.438,147.152,32.405,146.669,32.405z M145.637,49.926V35.31h2.065v14.616H145.637z"/>
	<path fill="#fff" d="M162.122,49.926v-9.647c0-2.033-1.451-3.517-4.032-3.517c-2.55,0-4.162,1.483-4.162,3.517v9.647h-2.033
		V35.31h1.903v2.193h0.032c0.484-1.355,1.969-2.517,4.742-2.517c3.195,0,5.582,1.903,5.582,5.099v9.841H162.122z"/>
	<path fill="#fff" d="M169.38,32.405c-0.452,0-1.42-0.968-1.42-1.42c0-0.482,0.968-1.42,1.42-1.42
		c0.483,0,1.419,0.938,1.419,1.42C170.799,31.438,169.863,32.405,169.38,32.405z M168.348,49.926V35.31h2.064v14.616H168.348z"/>
	<path fill="#fff" d="M183.124,36.987h-4.97v9.034c0,1.71,0.937,2.354,2.354,2.354c0.581,0,1.099-0.096,1.484-0.289l-0.226,1.678
		c-0.388,0.227-1,0.291-1.613,0.291c-2.228,0-4.002-1.323-4.002-3.873v-9.195h-2.902V35.31h2.902v-3.162l2-1.064v4.228h5.356
		L183.124,36.987z"/>
	<path fill="#fff" d="M192.832,48.667c-2.098,5.131-4.389,7.485-7.421,8.776l-1.323-1.323c2.904-1.192,4.775-3.129,6.485-7.033
		l-5.679-13.777h2.129l3.131,7.615c0.451,1.129,1.031,2.549,1.451,3.84h0.064c0.484-1.229,1.129-2.809,1.549-3.84l3.131-7.615h1.967
		L192.832,48.667z"/>
	<path fill="#fff" d="M207.221,50.282c-2.518,0-4.904-0.937-6.066-1.774V26.952h2.389v9.391c0.646-0.678,2.452-1.389,4.229-1.389
		c4.258,0,7.389,3.194,7.389,7.584C215.158,47.021,212.027,50.282,207.221,50.282z M207.543,37.116c-2.033,0-3.42,0.937-4.001,1.549
		v8.647c0.646,0.388,2.13,0.903,3.452,0.903c3.518,0,5.712-2.291,5.742-5.614C212.736,39.407,210.512,37.116,207.543,37.116z"/>
	<path fill="#fff" d="M225.803,37.794c-0.258-0.064-0.677-0.161-1.097-0.161c-2.099,0-4.163,1.258-4.163,4.872v7.421h-2.389
		V35.31h2.389v3.193h0.033c0.482-2.064,2.162-3.389,4.388-3.389c0.419,0,1.065,0.065,1.42,0.194L225.803,37.794z"/>
	<path fill="#fff" d="M230.125,32.438c-0.518,0-1.581-1.097-1.581-1.612c0-0.55,1.063-1.582,1.581-1.582
		c0.549,0,1.613,1.032,1.613,1.582C231.738,31.341,230.674,32.438,230.125,32.438z M228.866,49.926V35.31h2.518v14.616H228.866z"/>
	<path fill="#fff" d="M246.45,49.926v-1.613h-0.031c-0.679,0.968-2.162,1.97-4.519,1.97c-3.452,0-7.162-2.744-7.162-7.647
		c0-4.485,3.193-7.681,7.453-7.681c1.742,0,3.517,0.711,4.131,1.389v-9.391h2.482v22.974H246.45z M246.322,38.794
		c-0.582-0.646-1.904-1.582-3.905-1.582c-2.871,0-5.163,2.228-5.163,5.453c0,3.26,2.292,5.453,5.163,5.453
		c1.903,0,3.26-0.968,3.905-1.902V38.794z"/>
	<path fill="#fff" d="M258.451,57.38c-3.938,0-6.583-2.194-6.583-5.163c0-2.613,1.71-4.001,3.259-4.323l-1.549-1.549
		c0-1.098,0.775-2.098,2.001-2.355c-1.42-0.646-2.646-2.098-2.646-4.13c0-2.84,2.227-4.905,5.42-4.905
		c0.774,0,1.389,0.131,1.903,0.258c0.517,0.162,1.194,0.228,1.937,0.228c0.744,0,1.679-0.258,2.195-0.548l0.483,2.064
		c-0.42,0.258-1.388,0.482-2.033,0.451c0.484,0.451,0.903,1.354,0.903,2.452c0,2.613-2.033,4.904-5.389,4.904
		c-1.389,0-2.131,0.29-2.131,0.968c0,0.258,0.26,0.581,0.742,0.742l3.938,1.388c2.518,0.871,4.001,2.226,4.001,4.775
		C264.902,55.347,262.291,57.38,258.451,57.38z M260.129,49.958l-2.872-0.871c-1.807,0-3.098,1.388-3.098,3.13
		c0,1.581,1.483,3.065,4.228,3.065c2.711,0,4.161-1.388,4.161-2.679C262.548,51.378,261.678,50.442,260.129,49.958z M258.354,37.02
		c-1.807,0-3.129,1.29-3.129,2.808c0,1.58,1.322,2.84,3.129,2.84c1.68,0,3.099-1.26,3.099-2.84
		C261.451,38.31,260.129,37.02,258.354,37.02z"/>
	<path fill="#fff" d="M279.902,41.634l-1.354,1.388h-9.519c0,2.388,2,5.162,5.613,5.162c1.808,0,3.194-0.517,4.26-1.259
		l-0.291,2.355c-1.031,0.58-2.354,1-4.26,1c-4.193,0-7.774-3.13-7.774-7.646c0-4.809,3.678-7.68,7.131-7.68
		c4.033,0,6.292,2.84,6.292,5.614C280,40.989,279.968,41.343,279.902,41.634z M273.837,37.02c-2.194,0-4.259,1.839-4.646,4.065
		h8.356c0.032-0.129,0.032-0.291,0.032-0.451C277.58,38.924,276.225,37.02,273.837,37.02z"/>
	<path fill="#fff" d="M120.088,50.249c-1-0.228-2.161-1.098-2.29-2.582c-0.549,1.679-2.291,2.582-4.163,2.582
		c-2.807,0-4.679-1.904-4.679-4.293c0-2.838,2.259-4.322,4.743-4.549l3.84-0.354v-1.388c0-1.808-1.258-2.903-3.452-2.903
		c-1.452,0-2.937,0.45-3.872,1.097l-0.42-1.711c1.13-0.773,2.646-1.16,4.389-1.16c3.13,0,5.421,1.742,5.421,4.872v6.679
		c0,1.453,0.871,2.228,1.807,2.389L120.088,50.249z M117.539,42.763l-3.452,0.322c-2.033,0.193-3.162,1.291-3.162,2.871
		c0,1.453,1.193,2.551,2.871,2.551c1.872,0,3.743-1.42,3.743-3.776V42.763z"/>
	<path fill="#fff" d="M133.218,29.114c-0.581-0.258-1.452-0.419-2.13-0.419c-2.451,0-4.033,1.419-4.033,4.452v2.162h4.938
		l-0.42,1.678h-4.518v12.938h-2.064V36.987h-2.582V35.31h2.582v-2.259c0-4.099,2.452-6.099,6.001-6.099
		c1.065,0,2.001,0.129,2.679,0.418L133.218,29.114z"/>
	<path fill="#fff" d="M143.961,29.114c-0.58-0.258-1.452-0.419-2.13-0.419c-2.452,0-4.033,1.419-4.033,4.452v2.162h4.938
		l-0.42,1.678h-4.519v12.938h-2.064V36.987h-2.582V35.31h2.582v-2.259c0-4.099,2.452-6.099,6.002-6.099c1.062,0,2,0.129,2.678,0.418
		L143.961,29.114z"/>
	<path fill="#fff" d="M146.669,32.405c-0.452,0-1.42-0.968-1.42-1.42c0-0.482,0.968-1.42,1.42-1.42c0.483,0,1.42,0.938,1.42,1.42
		C148.089,31.438,147.152,32.405,146.669,32.405z M145.637,49.926V35.31h2.065v14.616H145.637z"/>
	<path fill="#fff" d="M162.122,49.926v-9.647c0-2.033-1.451-3.517-4.032-3.517c-2.55,0-4.162,1.483-4.162,3.517v9.647h-2.033
		V35.31h1.903v2.193h0.032c0.484-1.355,1.969-2.517,4.742-2.517c3.195,0,5.582,1.903,5.582,5.099v9.841H162.122z"/>
	<path fill="#fff" d="M169.38,32.405c-0.452,0-1.42-0.968-1.42-1.42c0-0.482,0.968-1.42,1.42-1.42
		c0.483,0,1.419,0.938,1.419,1.42C170.799,31.438,169.863,32.405,169.38,32.405z M168.348,49.926V35.31h2.064v14.616H168.348z"/>
	<path fill="#fff" d="M183.124,36.987h-4.97v9.034c0,1.71,0.937,2.354,2.354,2.354c0.581,0,1.099-0.096,1.484-0.289l-0.226,1.678
		c-0.388,0.227-1,0.291-1.613,0.291c-2.228,0-4.002-1.323-4.002-3.873v-9.195h-2.902V35.31h2.902v-3.162l2-1.064v4.228h5.356
		L183.124,36.987z"/>
	<path fill="#fff" d="M192.832,48.667c-2.098,5.131-4.389,7.485-7.421,8.776l-1.323-1.323c2.904-1.192,4.775-3.129,6.485-7.033
		l-5.679-13.777h2.129l3.131,7.615c0.451,1.129,1.031,2.549,1.451,3.84h0.064c0.484-1.229,1.129-2.809,1.549-3.84l3.131-7.615h1.967
		L192.832,48.667z"/>
	<path fill="#fff" d="M207.221,50.282c-2.518,0-4.904-0.937-6.066-1.774V26.952h2.389v9.391c0.646-0.678,2.452-1.389,4.229-1.389
		c4.258,0,7.389,3.194,7.389,7.584C215.158,47.021,212.027,50.282,207.221,50.282z M207.543,37.116c-2.033,0-3.42,0.937-4.001,1.549
		v8.647c0.646,0.388,2.13,0.903,3.452,0.903c3.518,0,5.712-2.291,5.742-5.614C212.736,39.407,210.512,37.116,207.543,37.116z"/>
	<path fill="#fff" d="M225.803,37.794c-0.258-0.064-0.677-0.161-1.097-0.161c-2.099,0-4.163,1.258-4.163,4.872v7.421h-2.389
		V35.31h2.389v3.193h0.033c0.482-2.064,2.162-3.389,4.388-3.389c0.419,0,1.065,0.065,1.42,0.194L225.803,37.794z"/>
	<path fill="#fff" d="M230.125,32.438c-0.518,0-1.581-1.097-1.581-1.612c0-0.55,1.063-1.582,1.581-1.582
		c0.549,0,1.613,1.032,1.613,1.582C231.738,31.341,230.674,32.438,230.125,32.438z M228.866,49.926V35.31h2.518v14.616H228.866z"/>
	<path fill="#fff" d="M246.45,49.926v-1.613h-0.031c-0.679,0.968-2.162,1.97-4.519,1.97c-3.452,0-7.162-2.744-7.162-7.647
		c0-4.485,3.193-7.681,7.453-7.681c1.742,0,3.517,0.711,4.131,1.389v-9.391h2.482v22.974H246.45z M246.322,38.794
		c-0.582-0.646-1.904-1.582-3.905-1.582c-2.871,0-5.163,2.228-5.163,5.453c0,3.26,2.292,5.453,5.163,5.453
		c1.903,0,3.26-0.968,3.905-1.902V38.794z"/>
	<path fill="#fff" d="M258.451,57.38c-3.938,0-6.583-2.194-6.583-5.163c0-2.613,1.71-4.001,3.259-4.323l-1.549-1.549
		c0-1.098,0.775-2.098,2.001-2.355c-1.42-0.646-2.646-2.098-2.646-4.13c0-2.84,2.227-4.905,5.42-4.905
		c0.774,0,1.389,0.131,1.903,0.258c0.517,0.162,1.194,0.228,1.937,0.228c0.744,0,1.679-0.258,2.195-0.548l0.483,2.064
		c-0.42,0.258-1.388,0.482-2.033,0.451c0.484,0.451,0.903,1.354,0.903,2.452c0,2.613-2.033,4.904-5.389,4.904
		c-1.389,0-2.131,0.29-2.131,0.968c0,0.258,0.26,0.581,0.742,0.742l3.938,1.388c2.518,0.871,4.001,2.226,4.001,4.775
		C264.902,55.347,262.291,57.38,258.451,57.38z M260.129,49.958l-2.872-0.871c-1.807,0-3.098,1.388-3.098,3.13
		c0,1.581,1.483,3.065,4.228,3.065c2.711,0,4.161-1.388,4.161-2.679C262.548,51.378,261.678,50.442,260.129,49.958z M258.354,37.02
		c-1.807,0-3.129,1.29-3.129,2.808c0,1.58,1.322,2.84,3.129,2.84c1.68,0,3.099-1.26,3.099-2.84
		C261.451,38.31,260.129,37.02,258.354,37.02z"/>
	<path fill="#fff" d="M279.902,41.634l-1.354,1.388h-9.519c0,2.388,2,5.162,5.613,5.162c1.808,0,3.194-0.517,4.26-1.259
		l-0.291,2.355c-1.031,0.58-2.354,1-4.26,1c-4.193,0-7.774-3.13-7.774-7.646c0-4.809,3.678-7.68,7.131-7.68
		c4.033,0,6.292,2.84,6.292,5.614C280,40.989,279.968,41.343,279.902,41.634z M273.837,37.02c-2.194,0-4.259,1.839-4.646,4.065
		h8.356c0.032-0.129,0.032-0.291,0.032-0.451C277.58,38.924,276.225,37.02,273.837,37.02z"/>
</g>
<g>
	<path fill="#FFFFFF" d="M49.248,18.718c-0.466-0.117-0.934,0.164-1.05,0.629c-0.115,0.462,0.167,0.929,0.633,1.045l0,0
		c0.068,0.019,0.14,0.025,0.209,0.025c0.386,0,0.74-0.26,0.836-0.653C49.991,19.299,49.71,18.83,49.248,18.718z M38.002,11.422
		c-0.375-0.293-0.92-0.229-1.213,0.148c-0.294,0.374-0.228,0.915,0.146,1.211h0.002c0.156,0.122,0.345,0.186,0.529,0.186
		c0.258,0,0.512-0.117,0.682-0.333C38.441,12.261,38.377,11.714,38.002,11.422z M35.302,9.248c-0.376-0.292-0.919-0.229-1.213,0.15
		c-0.294,0.373-0.228,0.915,0.146,1.209h0.003c0.156,0.123,0.345,0.187,0.529,0.187c0.258,0,0.512-0.117,0.682-0.334
		C35.741,10.086,35.676,9.541,35.302,9.248z M46.382,17.299c-0.413-0.242-0.943-0.101-1.182,0.309
		c-0.243,0.413-0.104,0.942,0.308,1.185c0-0.001,0-0.001,0-0.001c0.136,0.079,0.286,0.117,0.435,0.117
		c0.296,0,0.585-0.15,0.746-0.427C46.931,18.069,46.793,17.542,46.382,17.299z M43.516,15.479c-0.395-0.269-0.931-0.166-1.199,0.23
		c-0.269,0.394-0.166,0.929,0.229,1.199c0.148,0.101,0.317,0.148,0.484,0.148c0.276,0,0.55-0.133,0.715-0.382
		C44.014,16.284,43.91,15.745,43.516,15.479z M40.729,13.5c-0.385-0.285-0.924-0.203-1.208,0.184
		c-0.284,0.381-0.202,0.923,0.181,1.207c0.155,0.113,0.333,0.169,0.513,0.169c0.267,0,0.527-0.123,0.695-0.35
		C41.195,14.323,41.114,13.782,40.729,13.5z"/>
	<path fill="#FFFFFF" d="M54.215,6.848c-0.536,0.358-0.678,1.086-0.318,1.619c0.227,0.334,0.593,0.519,0.972,0.519
		c0.223,0,0.45-0.068,0.65-0.201c0.534-0.361,0.679-1.085,0.317-1.617C55.476,6.627,54.749,6.487,54.215,6.848z M51.991,3.531
		c-0.558,0.375-0.708,1.134-0.332,1.692c0.235,0.351,0.62,0.543,1.015,0.543c0.233,0,0.471-0.071,0.681-0.209
		c0.557-0.378,0.708-1.135,0.331-1.692C53.311,3.302,52.55,3.155,51.991,3.531z M49.767,0.217c-0.583,0.392-0.74,1.184-0.347,1.767
		c0.246,0.363,0.647,0.563,1.058,0.563c0.244,0,0.492-0.071,0.711-0.218c0.583-0.393,0.739-1.183,0.346-1.765
		C51.142-0.022,50.351-0.176,49.767,0.217z M56.449,10.171c-0.512,0.345-0.646,1.031-0.305,1.544
		c0.215,0.321,0.57,0.495,0.927,0.495c0.214,0,0.429-0.063,0.62-0.191c0.512-0.342,0.646-1.033,0.305-1.546
		C57.652,9.963,56.96,9.823,56.449,10.171z M60.153,13.782c-0.327-0.486-0.987-0.619-1.471-0.289
		c-0.488,0.324-0.618,0.988-0.291,1.473c0.206,0.303,0.54,0.468,0.883,0.468c0.203,0,0.41-0.057,0.591-0.182
		C60.352,14.929,60.48,14.268,60.153,13.782z"/>
	<path fill="#FFFFFF" d="M64.147,20.847L64.147,20.847c-0.229-0.34-0.138-0.801,0.199-1.028l0,0c0.339-0.229,0.802-0.139,1.03,0.199
		l0,0c0,0,0,0,0,0.001l0,0c0.228,0.34,0.14,0.8-0.202,1.03l0,0c-0.127,0.086-0.27,0.125-0.413,0.125l0,0
		C64.523,21.172,64.291,21.057,64.147,20.847L64.147,20.847z"/>
	<path fill="#FFFFFF" d="M98.399,64.899c-0.166-0.15-0.336-0.308-0.511-0.462c-0.089-0.083-0.182-0.166-0.273-0.247
		c-0.176-0.156-0.352-0.313-0.53-0.472c-0.088-0.077-0.175-0.156-0.264-0.234c-0.628-0.552-1.288-1.122-1.977-1.711
		c-0.096-0.079-0.19-0.163-0.289-0.242c-0.203-0.176-0.407-0.349-0.618-0.521c-0.11-0.096-0.224-0.189-0.335-0.284
		c-0.211-0.178-0.42-0.353-0.637-0.53c-0.101-0.083-0.201-0.168-0.302-0.251c-0.75-0.621-1.525-1.254-2.323-1.898
		c-0.11-0.094-0.222-0.182-0.334-0.271c-0.235-0.189-0.472-0.383-0.713-0.574c-0.121-0.101-0.249-0.196-0.372-0.298
		c-0.246-0.194-0.491-0.391-0.738-0.592c-0.093-0.073-0.186-0.144-0.28-0.221c-0.868-0.688-1.759-1.392-2.667-2.101
		c-0.108-0.084-0.214-0.166-0.321-0.248c-0.277-0.219-0.556-0.435-0.835-0.651c-0.103-0.077-0.205-0.158-0.309-0.237
		c-0.3-0.231-0.602-0.464-0.903-0.7c-0.006-0.002-0.011-0.006-0.015-0.01c-1.053-0.811-2.124-1.632-3.212-2.457l-0.179-0.135
		c-0.341-0.261-0.684-0.52-1.027-0.781c-0.04-0.029-0.079-0.059-0.117-0.089c-1.498-1.132-3.018-2.271-4.552-3.411l0.018,0.042
		c-0.552-0.418-1.105-0.838-1.661-1.253l-0.007-0.019c-3.596-2.665-7.227-5.313-10.752-7.86
		c-12.295-8.367-24.964-16.785-26.934-18.088L0.002,25.014l42.745,18.56l-7.356,22.423h11.471l1.185-9.363
		c1.394-1.249,8.09-6.607,16.244-2.68l0.211,1.714c-1.912-1.104-3.828-1.524-5.592-1.523c-5.004,0.01-8.826,3.236-8.857,3.255
		l-0.116,0.097l-0.857,8.501h0.742l0.82-8.121c0.105-0.083,0.282-0.216,0.525-0.383c1.256-0.871,4.236-2.616,7.743-2.61
		c1.801,0.004,3.746,0.458,5.709,1.721l1.16,9.393h14.383l-6.814-18.598c0.411,0.184,0.98,0.466,1.616,0.861l7.089,17.736h1.567
		L80.167,57.8c7.817,3.582,12.744,6.308,15.781,8.195h3.626c-0.305-0.289-0.618-0.585-0.949-0.889
		C98.548,65.04,98.474,64.97,98.399,64.899z M74.385,44.082L63.186,17.509c0.115-0.172,0.115-0.404-0.022-0.576l-1.607-1.971
		c-0.172-0.215-0.482-0.242-0.695-0.071c-0.137,0.115-0.192,0.288-0.168,0.452c-0.066,0.232-0.277,0.625-0.894,1.136l-0.128,0.064
		l0.191,1.564c-3.416,0.443-6.526,3.019-7.445,3.849l-1.459-1.245c-0.255,0-0.415-0.017-0.511-0.028
		c-0.192-0.095-0.429-0.066-0.581,0.1c-0.127,0.139-0.152,0.329-0.096,0.492l0.069,0.667l0.01-0.015l-1.035,3.16
		c-4.419-3.21-9.198-6.652-14.384-10.357v1.078c0.887,0.621,1.757,1.232,2.619,1.843c0.22,0.152,0.438,0.307,0.655,0.457
		c0.827,0.584,1.642,1.159,2.445,1.729c0.292,0.206,0.578,0.409,0.868,0.613c0.576,0.409,1.147,0.813,1.715,1.217
		c0.455,0.32,0.91,0.643,1.361,0.965c0.5,0.354,0.998,0.708,1.489,1.06c0.404,0.282,0.802,0.566,1.198,0.849
		c0.452,0.325,0.899,0.643,1.345,0.961c3.804,2.718,7.349,5.271,10.639,7.664c0.003,0.003,0.003,0.003,0.003,0.006
		c0.319,0.228,0.63,0.456,0.947,0.685c0.348,0.255,0.693,0.508,1.035,0.758c0.347,0.253,0.693,0.505,1.035,0.755
		c0.475,0.349,0.944,0.695,1.406,1.034c0.299,0.218,0.597,0.434,0.891,0.654c0.358,0.261,0.71,0.525,1.061,0.779
		c0.411,0.302,0.813,0.601,1.213,0.896c0.328,0.242,0.651,0.481,0.973,0.723c0.268,0.197,0.536,0.397,0.799,0.589
		c0.475,0.354,0.943,0.703,1.403,1.048c0.252,0.188,0.5,0.375,0.748,0.56c0.303,0.224,0.602,0.449,0.898,0.67
		c0.316,0.237,0.63,0.474,0.937,0.706c0.356,0.267,0.708,0.531,1.056,0.792c0.24,0.183,0.48,0.364,0.718,0.542
		c0.336,0.256,0.671,0.508,1.001,0.758c0.287,0.216,0.566,0.433,0.846,0.644c0.279,0.215,0.556,0.422,0.829,0.631
		c0.215,0.164,0.43,0.327,0.64,0.489c0.387,0.295,0.764,0.586,1.135,0.87c0.213,0.162,0.422,0.325,0.631,0.487
		c0.241,0.183,0.482,0.368,0.718,0.551c0.271,0.209,0.54,0.417,0.805,0.623c0.27,0.207,0.537,0.42,0.801,0.623
		c0.193,0.15,0.383,0.298,0.574,0.445c0.098,0.078,0.193,0.152,0.292,0.229c1.496,1.111,2.624,1.995,3.269,2.576
		c0.162,0.128,0.323,0.254,0.481,0.383c0.208,0.164,0.413,0.329,0.615,0.493c0.207,0.166,0.411,0.327,0.614,0.491
		c0.209,0.17,0.415,0.332,0.618,0.497c0.148,0.121,0.299,0.243,0.444,0.36c0.264,0.215,0.525,0.426,0.778,0.635
		c0.133,0.107,0.259,0.213,0.387,0.315c0.177,0.143,0.351,0.286,0.521,0.429c0.125,0.104,0.249,0.205,0.368,0.304
		c0.241,0.2,0.477,0.395,0.711,0.587c0.122,0.104,0.241,0.204,0.359,0.301c0.175,0.145,0.346,0.287,0.512,0.43
		c0.149,0.126,0.3,0.252,0.445,0.375c0.155,0.13,0.31,0.262,0.46,0.388c0.111,0.095,0.223,0.188,0.334,0.281
		c0.198,0.171,0.394,0.339,0.585,0.502c0.102,0.089,0.201,0.174,0.302,0.261c0.127,0.107,0.252,0.216,0.375,0.322
		c0.114,0.101,0.228,0.198,0.34,0.296c0.155,0.135,0.309,0.269,0.457,0.397c0.098,0.086,0.193,0.171,0.285,0.252
		c0.125,0.108,0.243,0.217,0.362,0.321c0.12,0.104,0.233,0.21,0.349,0.31c0.104,0.096,0.209,0.188,0.31,0.278
		c0.083,0.076,0.168,0.152,0.25,0.227c0.143,0.131,0.279,0.256,0.415,0.379c0.075,0.07,0.146,0.139,0.223,0.203
		c0.088,0.081,0.175,0.162,0.258,0.24c0.1,0.09,0.194,0.182,0.292,0.268c0.092,0.089,0.185,0.174,0.274,0.259
		c0.065,0.063,0.134,0.126,0.2,0.189c0.086,0.083,0.172,0.163,0.255,0.245c0.086,0.079,0.168,0.162,0.252,0.241
		c0.062,0.062,0.125,0.122,0.186,0.179c0.062,0.062,0.123,0.124,0.183,0.182c0.093,0.09,0.183,0.178,0.268,0.266
		c0.061,0.056,0.115,0.112,0.17,0.17c0.049,0.048,0.094,0.095,0.14,0.141c0.087,0.088,0.176,0.176,0.255,0.261
		c0.019,0.02,0.037,0.037,0.055,0.055h0.469C98.194,63.377,91.756,57.369,74.385,44.082z M60.709,24.967l-1.307-0.103l1.178-0.928
		L60.709,24.967z M60.547,23.65l-1.507,1.183l-0.556-0.043l2.005-1.614L60.547,23.65z M60.333,21.929l-3.212,2.688
		c-0.079,0.063-0.175,0.123-0.277,0.178c-0.245,0.061-0.612,0.131-0.942,0.314c-0.077,0.01-0.178,0.011-0.353,0l-2.722-0.217
		c3.052-2.248,4.417-2.885,7.45-3.425L60.333,21.929z M52.129,24.308c3.255-2.839,6.687-3.678,8.018-3.909l0.068,0.577
		c-1.37,0.118-4.122,0.75-7.706,3.559l-0.443,0.353L52.129,24.308z M51.918,25.978l2.294,0.085l0.575,0.041l-0.465,0.376
		l-2.452-0.128L51.918,25.978z M51.76,27.232l0.08-0.637l2.2,0.119l-1.416,1.146C52.335,27.651,52.054,27.444,51.76,27.232z
		 M53.52,28.518l2.454-2.01c0.376-0.31,1.087-0.531,1.572-0.493l3.326,0.265l0.066,0.526l-3.093-0.245
		c-0.042-0.006-0.084-0.006-0.127-0.006c-0.53,0-1.174,0.217-1.568,0.536l-2.162,1.77C53.833,28.746,53.675,28.633,53.52,28.518z
		 M57.097,31.159c-0.864-0.638-1.922-1.429-2.819-2.088l2.09-1.714c0.301-0.253,0.917-0.463,1.349-0.458
		c0.035,0,0.068,0.001,0.1,0.005l3.162,0.25l0.082,0.703L57.097,31.159z M58.9,31.449l2.363-2.006l0.05,0.414l-2.074,1.664
		L58.9,31.449z M59.613,31.598l1.743-1.396l0.224,1.814L59.613,31.598z M60.296,33.5l1.506,0.324l0.107,0.869
		C61.382,34.302,60.838,33.898,60.296,33.5z M71.26,41.701l-8.253-22.524l0.433,0.249l9.375,23.458
		C72.303,42.492,71.787,42.103,71.26,41.701z"/>
	<path fill="#FFFFFF" d="M66.112,23.703c-0.234-0.334-0.154-0.797,0.182-1.029l0,0c0.334-0.235,0.797-0.154,1.032,0.183l0,0
		c0,0,0,0-0.001,0l0,0c0.234,0.336,0.153,0.798-0.183,1.029l0,0c-0.128,0.09-0.277,0.137-0.425,0.137l0,0
		C66.485,24.022,66.256,23.911,66.112,23.703L66.112,23.703z"/>
	<path fill="#FFFFFF" d="M68.119,26.534h0.002c-0.24-0.333-0.166-0.8,0.167-1.037l0,0c0.332-0.239,0.794-0.165,1.033,0.167l0,0l0,0
		l0,0c0.239,0.334,0.165,0.797-0.167,1.033l0,0c-0.132,0.097-0.281,0.143-0.432,0.143l0,0
		C68.493,26.839,68.264,26.731,68.119,26.534L68.119,26.534z"/>
	<path fill="#FFFFFF" d="M70.164,29.329c-0.244-0.327-0.174-0.794,0.156-1.035l0,0c0.328-0.242,0.792-0.172,1.035,0.158l0,0
		c0,0,0,0,0-0.001l0,0c0.243,0.327,0.173,0.79-0.156,1.034l0,0c-0.132,0.098-0.286,0.146-0.44,0.146l0,0
		C70.532,29.632,70.309,29.527,70.164,29.329L70.164,29.329z"/>
	<path fill="#FFFFFF" d="M72.236,32.104c-0.247-0.329-0.181-0.792,0.145-1.038l0,0c0.326-0.246,0.791-0.181,1.037,0.145l0,0
		c0.246,0.326,0.185,0.792-0.145,1.041l0,0c-0.132,0.099-0.29,0.148-0.446,0.148l0,0C72.604,32.399,72.382,32.299,72.236,32.104
		L72.236,32.104z"/>
	<path fill="#FFFFFF" d="M74.342,34.857H74.34c-0.25-0.323-0.189-0.789,0.134-1.039l0,0c0.325-0.248,0.788-0.19,1.042,0.133l0,0
		c0,0,0,0-0.002,0l0,0c0.25,0.325,0.191,0.79-0.133,1.039l0,0c-0.135,0.104-0.294,0.155-0.451,0.155l0,0
		C74.708,35.145,74.487,35.044,74.342,34.857L74.342,34.857z"/>
	<path fill="#FFFFFF" d="M76.456,37.407L76.456,37.407c-0.219-0.277-0.17-0.683,0.108-0.899l0,0
		c0.276-0.221,0.681-0.175,0.898,0.104l0,0l0,0h0.002c0.218,0.279,0.171,0.682-0.107,0.902l0,0
		c-0.118,0.093-0.257,0.139-0.396,0.139l0,0C76.771,37.653,76.583,37.568,76.456,37.407L76.456,37.407z"/>
	<path fill="#FFFFFF" d="M78.303,39.732L78.303,39.732c-0.223-0.274-0.177-0.683,0.098-0.903l0,0c0.279-0.222,0.682-0.178,0.905,0.1
		l0,0c0,0,0,0-0.001,0l0,0c0.222,0.275,0.177,0.682-0.101,0.903l0,0c-0.118,0.096-0.258,0.14-0.399,0.14l0,0
		C78.615,39.971,78.428,39.889,78.303,39.732L78.303,39.732z"/>
	<path fill="#FFFFFF" d="M80.168,42.038L80.168,42.038L80.168,42.038L80.168,42.038c-0.225-0.271-0.184-0.68,0.092-0.904l0,0
		c0.274-0.223,0.68-0.182,0.901,0.093l0,0c0,0,0,0,0,0.003l0,0c0.227,0.273,0.185,0.678-0.089,0.901l0,0
		c-0.119,0.099-0.264,0.144-0.406,0.144l0,0C80.48,42.273,80.294,42.191,80.168,42.038L80.168,42.038z"/>
	<path fill="#FFFFFF" d="M82.054,44.328c-0.227-0.271-0.189-0.676,0.082-0.903l0,0c0.273-0.227,0.679-0.188,0.906,0.085l0,0
		c0.225,0.272,0.187,0.677-0.084,0.904l0,0c-0.12,0.099-0.266,0.149-0.412,0.149l0,0C82.361,44.563,82.179,44.483,82.054,44.328
		L82.054,44.328z"/>
	<path fill="#FFFFFF" d="M84.018,46.563c-0.202-0.241-0.173-0.599,0.067-0.804l0,0c0.24-0.207,0.601-0.176,0.805,0.067l0,0
		c0.203,0.241,0.173,0.6-0.068,0.801l0,0c-0.105,0.093-0.237,0.137-0.366,0.137l0,0C84.292,46.764,84.13,46.697,84.018,46.563
		L84.018,46.563z"/>
	<path fill="#FFFFFF" d="M85.947,48.819c-0.205-0.238-0.181-0.599,0.06-0.807l0,0c0.238-0.204,0.599-0.176,0.805,0.061l0,0l0,0l0,0
		c0.204,0.238,0.18,0.601-0.059,0.804l0,0c-0.108,0.094-0.242,0.142-0.374,0.142l0,0C86.218,49.017,86.059,48.948,85.947,48.819
		L85.947,48.819z"/>
	<path fill="#FFFFFF" d="M87.898,51.056c-0.21-0.237-0.186-0.599,0.05-0.806l0,0c0.238-0.204,0.598-0.186,0.807,0.053l0,0
		c0.207,0.233,0.185,0.596-0.053,0.804l0,0c-0.106,0.095-0.242,0.145-0.376,0.145l0,0C88.168,51.25,88.011,51.184,87.898,51.056
		L87.898,51.056z"/>
	<path fill="#FFFFFF" d="M89.875,53.27c-0.213-0.231-0.193-0.594,0.041-0.804l0,0c0.234-0.212,0.596-0.193,0.805,0.042l0,0
		c0.212,0.232,0.195,0.596-0.042,0.807l0,0c-0.106,0.098-0.247,0.146-0.381,0.146l0,0C90.142,53.461,89.986,53.396,89.875,53.27
		L89.875,53.27z"/>
	<path fill="#FFFFFF" d="M92.53,54.603c-0.185-0.199-0.497-0.212-0.698-0.023c-0.199,0.184-0.212,0.494-0.026,0.697
		c0.096,0.104,0.228,0.156,0.361,0.156c0.122,0,0.24-0.043,0.334-0.133C92.705,55.118,92.716,54.805,92.53,54.603L92.53,54.603z"/>
	<path fill="#FFFFFF" d="M93.839,56.76c-0.203,0.186-0.215,0.496-0.033,0.696c0.1,0.107,0.229,0.162,0.367,0.162
		c0.118,0,0.239-0.044,0.333-0.131c0.203-0.185,0.214-0.495,0.032-0.697C94.352,56.589,94.039,56.575,93.839,56.76z"/>
	<path fill="#FFFFFF" d="M95.839,58.947c-0.2,0.182-0.214,0.497-0.029,0.696c0.097,0.106,0.229,0.16,0.364,0.16
		c0.117,0,0.24-0.043,0.334-0.129c0.2-0.186,0.213-0.5,0.027-0.7C96.355,58.774,96.04,58.761,95.839,58.947z"/>
	<path fill="#FFFFFF" d="M97.851,61.125c-0.2,0.187-0.21,0.498-0.024,0.7c0.1,0.102,0.23,0.155,0.362,0.155
		c0.122,0,0.242-0.044,0.336-0.133c0.2-0.186,0.21-0.499,0.026-0.698C98.363,60.948,98.051,60.938,97.851,61.125z"/>
	<path fill="#FFFFFF" d="M100.39,63.106c-0.191-0.198-0.5-0.203-0.697-0.014c-0.198,0.188-0.205,0.498-0.015,0.696
		c0.095,0.102,0.227,0.152,0.355,0.152c0.123,0,0.246-0.045,0.34-0.137c0.197-0.192,0.203-0.504,0.017-0.701
		C100.39,63.106,100.39,63.106,100.39,63.106z"/>
	<path fill="#FFFFFF" d="M102.011,65.02c-0.191-0.198-0.501-0.203-0.698-0.015c-0.198,0.189-0.205,0.502-0.016,0.696
		c0.097,0.104,0.227,0.154,0.355,0.154c0.124,0,0.248-0.046,0.342-0.136C102.193,65.528,102.198,65.217,102.011,65.02L102.011,65.02
		z"/>
</g>
</svg>
