<?xml version="1.0" encoding="utf-8"?>
<!-- Generator: Adobe Illustrator 19.0.0, SVG Export Plug-In . SVG Version: 6.00 Build 0)  -->
<svg version="1.1" id="Layer_1" xmlns="http://www.w3.org/2000/svg" xmlns:xlink="http://www.w3.org/1999/xlink" x="0px" y="0px"
	 viewBox="0 0 1200 81.5" style="enable-background:new 0 0 1200 81.5;" xml:space="preserve">
<style type="text/css">
	.st0{fill:#fff;}
</style>
<g id="XMLID_82_">
	<g id="XMLID_573_">
		<g id="XMLID_617_">
			<path id="XMLID_640_" class="st0" d="M848.8,11.6h24.6v7.8H857v17.4h14.2v7.8H857v24.6h-8.2V11.6z"/>
			<path id="XMLID_637_" class="st0" d="M879,25.2c0-9.4,7.1-14.1,13.8-14.1c6.7,0,13.8,4.7,13.8,14.1v30.4
				c0,9.4-7.1,14.1-13.8,14.1c-6.7,0-13.8-4.7-13.8-14.1V25.2z M887.2,55.5c0,4,2.6,5.8,5.6,5.8c3,0,5.6-1.9,5.6-5.8V25.2
				c0-4-2.6-5.8-5.6-5.8c-3,0-5.6,1.9-5.6,5.8V55.5z"/>
			<path id="XMLID_635_" class="st0" d="M945.4,56.2c0,7.5-6,13.4-13.3,13.4c-7.4,0-13.3-5.9-13.3-13.4V11.6h8.2v43.8
				c0,4,2.2,6,5.1,6c2.9,0,5.1-1.9,5.1-6V11.6h8.2V56.2z"/>
			<path id="XMLID_633_" class="st0" d="M957.7,11.6h7.9L978,46.3h0.2V11.6h8.2v57.5h-7.8l-12.6-34.6h-0.2v34.6h-8.2V11.6z"/>
			<path id="XMLID_630_" class="st0" d="M998.7,11.6h12.2c9.3,0,14.5,5.6,14.5,14.9v26.9c0,10.7-5.5,15.8-15.2,15.8h-11.5V11.6z
				 M1007,61.4h3.8c4.6,0,6.4-2.3,6.4-7.2V26.5c0-4.5-1.5-7.1-6.4-7.1h-3.8V61.4z"/>
			<path id="XMLID_627_" class="st0" d="M1046.1,11.6h6.9l12.8,57.5h-8.2l-2.4-12.4H1044l-2.4,12.4h-8.2L1046.1,11.6z M1049.6,28.2
				h-0.2l-4,20.8h8.2L1049.6,28.2z"/>
			<path id="XMLID_625_" class="st0" d="M1075.7,19.4h-9.5v-7.8h27.3v7.8h-9.5v49.8h-8.2V19.4z"/>
			<path id="XMLID_623_" class="st0" d="M1102.2,11.6h8.2v57.5h-8.2V11.6z"/>
			<path id="XMLID_620_" class="st0" d="M1122.8,25.2c0-9.4,7.1-14.1,13.8-14.1c6.7,0,13.8,4.7,13.8,14.1v30.4
				c0,9.4-7.1,14.1-13.8,14.1c-6.7,0-13.8-4.7-13.8-14.1V25.2z M1131.1,55.5c0,4,2.6,5.8,5.6,5.8c3,0,5.6-1.9,5.6-5.8V25.2
				c0-4-2.6-5.8-5.6-5.8c-3,0-5.6,1.9-5.6,5.8V55.5z"/>
			<path id="XMLID_618_" class="st0" d="M1162.2,11.6h7.9l12.4,34.7h0.2V11.6h8.2v57.5h-7.8l-12.6-34.6h-0.2v34.6h-8.2V11.6z"/>
		</g>
		<g id="XMLID_594_">
			<path id="XMLID_615_" class="st0" d="M178.5,11.6h24.6v7.8h-16.3v16.9H201V44h-14.2v16.9h16.3v8.2h-24.6V11.6z"/>
			<path id="XMLID_613_" class="st0" d="M213.2,11.6h8.2v49.3h16.3v8.2h-24.6V11.6z"/>
			<path id="XMLID_611_" class="st0" d="M248,11.6h24.6v7.8h-16.3v16.9h14.2V44h-14.2v16.9h16.3v8.2H248V11.6z"/>
			<path id="XMLID_609_" class="st0" d="M308.9,56.3c0,7.1-5.7,13.3-13.1,13.3c-6.3,0-13.6-3.1-13.6-13.6V24.4
				c0-7.5,5.4-13.2,13.4-13.2c7.6,0,13.2,5.7,13.2,13.7v3.2h-8.2v-2.7c0-3.2-1.9-6-5.1-6c-4.1,0-5.1,2.8-5.1,6.7v29.4
				c0,3.3,1.3,5.9,5,5.9c2.3,0,5.2-1.3,5.2-5.8v-2.8h8.2V56.3z"/>
			<path id="XMLID_607_" class="st0" d="M323.4,19.4h-9.5v-7.8h27.3v7.8h-9.5v49.8h-8.2V19.4z"/>
			<path id="XMLID_604_" class="st0" d="M349.7,11.6H363c9.8,0,14.5,5.7,14.5,16.9c0,6.6-1.9,11.5-7.1,14.4l8.9,26.3h-8.7l-7.7-24.6
				h-4.9v24.6h-8.2V11.6z M357.9,37.3h4.7c5.7,0,6.6-3.2,6.6-9c0-5.8-1-9-7-9h-4.3V37.3z"/>
			<path id="XMLID_601_" class="st0" d="M388.5,25.2c0-9.4,7.1-14.1,13.8-14.1c6.7,0,13.8,4.7,13.8,14.1v30.4
				c0,9.4-7.1,14.1-13.8,14.1c-6.7,0-13.8-4.7-13.8-14.1V25.2z M396.7,55.5c0,4,2.6,5.8,5.6,5.8c3,0,5.6-1.9,5.6-5.8V25.2
				c0-4-2.6-5.8-5.6-5.8c-3,0-5.6,1.9-5.6,5.8V55.5z"/>
			<path id="XMLID_599_" class="st0" d="M427.9,11.6h7.9l12.4,34.7h0.2V11.6h8.2v57.5h-7.8l-12.6-34.6h-0.2v34.6h-8.2V11.6z"/>
			<path id="XMLID_597_" class="st0" d="M469.2,11.6h8.2v57.5h-8.2V11.6z"/>
			<path id="XMLID_595_" class="st0" d="M516.5,56.3c0,7.1-5.7,13.3-13.1,13.3c-6.3,0-13.6-3.1-13.6-13.6V24.4
				c0-7.5,5.4-13.2,13.4-13.2c7.6,0,13.3,5.7,13.3,13.7v3.2h-8.2v-2.7c0-3.2-1.9-6-5.1-6c-4.1,0-5.1,2.8-5.1,6.7v29.4
				c0,3.3,1.3,5.9,5,5.9c2.3,0,5.2-1.3,5.2-5.8v-2.8h8.2V56.3z"/>
		</g>
		<g id="XMLID_574_">
			<path id="XMLID_592_" class="st0" d="M547.9,11.6h24.6v7.8h-16.3v17.4h14.2v7.8h-14.2v24.6h-8.2V11.6z"/>
			<path id="XMLID_589_" class="st0" d="M582.6,11.6h13.2c9.8,0,14.5,5.7,14.5,16.9c0,6.6-1.9,11.5-7.1,14.4l8.9,26.3h-8.7
				l-7.7-24.6h-4.9v24.6h-8.2V11.6z M590.9,37.3h4.7c5.7,0,6.6-3.2,6.6-9c0-5.8-1-9-7-9h-4.3V37.3z"/>
			<path id="XMLID_586_" class="st0" d="M621.4,25.2c0-9.4,7.1-14.1,13.8-14.1c6.7,0,13.8,4.7,13.8,14.1v30.4
				c0,9.4-7.1,14.1-13.8,14.1c-6.7,0-13.8-4.7-13.8-14.1V25.2z M629.7,55.5c0,4,2.6,5.8,5.6,5.8c3,0,5.6-1.9,5.6-5.8V25.2
				c0-4-2.6-5.8-5.6-5.8c-3,0-5.6,1.9-5.6,5.8V55.5z"/>
			<path id="XMLID_584_" class="st0" d="M660.8,11.6h7.9l12.4,34.7h0.2V11.6h8.2v57.5h-7.8l-12.6-34.6h-0.2v34.6h-8.2V11.6z"/>
			<path id="XMLID_582_" class="st0" d="M707.3,19.4h-9.5v-7.8h27.3v7.8h-9.5v49.8h-8.2V19.4z"/>
			<path id="XMLID_580_" class="st0" d="M733.8,11.6h8.2v57.5h-8.2V11.6z"/>
			<path id="XMLID_578_" class="st0" d="M754.9,11.6h24.6v7.8h-16.3v16.9h14.2V44h-14.2v16.9h16.3v8.2h-24.6V11.6z"/>
			<path id="XMLID_575_" class="st0" d="M789.6,11.6h13.2c9.8,0,14.5,5.7,14.5,16.9c0,6.6-1.9,11.5-7.1,14.4l8.9,26.3h-8.7
				l-7.7-24.6h-4.9v24.6h-8.2V11.6z M797.9,37.3h4.7c5.7,0,6.6-3.2,6.6-9c0-5.8-1-9-7-9h-4.3V37.3z"/>
		</g>
	</g>
</g>
<g id="XMLID_13_">
	<g id="XMLID_61_">
		<path id="XMLID_62_" class="st0" d="M92.6,0C81.8,0,72,4.2,64.7,11.1h-52h-2.5v2.5v54.3v2.5h2.5h52c7.3,6.9,17.1,11.1,28,11.1
			c22.5,0,40.7-18.2,40.7-40.7C133.4,18.2,115.1,0,92.6,0z M52.8,32.2H39.2v-7.2H55C54.1,27.4,53.3,29.8,52.8,32.2z M55,56.4H39.2
			V46.2h13C52.7,49.8,53.7,53.2,55,56.4z M12.6,67.9V13.6h49.6h18.3v9H56.1H36.8v12.1h15.5H79v9.1H52H36.8v15.1h19.3h24.4v9.1H62.2
			H12.6z M98.6,48.3h-4.5v6h3v4.5h-3v9.1h-4.5V43.8h9V48.3z M98.6,18.1h-4.5v6h3v4.5h-3v9.1h-4.5V13.6h9V18.1z"/>
	</g>
</g>
</svg>
