<svg xmlns="http://www.w3.org/2000/svg" viewBox="0 0 237.74 51.85"><defs><style>.cls-1{fill:#fff;}</style></defs><title>icon-twilio</title><g id="Layer_2" data-name="Layer 2"><g id="Who_is_Twilio" data-name="Who is Twilio"><g id="Layer_312" data-name="Layer 312"><path class="cls-1" d="M25.93,0A25.93,25.93,0,1,0,51.85,25.93,25.89,25.89,0,0,0,25.93,0Zm0,44.94a19,19,0,1,1,19-19A19,19,0,0,1,25.93,44.94Z"/><path class="cls-1" d="M121.33,18H103.7a.55.55,0,0,0-.52.52l-2.25,8.64-.17.52L98,18.49a.78.78,0,0,0-.52-.52H90.57a.55.55,0,0,0-.52.52l-2.59,8.64-.17.52-.17-.52-1-4.32-1-4.32a.78.78,0,0,0-.52-.52H70.69V10.54A.51.51,0,0,0,70,10.2L61.36,13a.46.46,0,0,0-.52.52v4.67H58.59a.55.55,0,0,0-.52.52v6.57a.55.55,0,0,0,.52.52h2.25v8.12c0,5.7,3.11,8.3,8.81,8.3a13.25,13.25,0,0,0,6.22-1.38V33.88c0-.35-.35-.52-.52-.35a6.78,6.78,0,0,1-2.42.52,2.12,2.12,0,0,1-2.42-2.42V25.75h5a.55.55,0,0,0,.52-.52V19.7l6.57,21.78a.78.78,0,0,0,.52.52h7.26a.55.55,0,0,0,.52-.52L94,31.8l1.56,5L97,41.48a.78.78,0,0,0,.52.52h7.26a.55.55,0,0,0,.52-.52l6.57-21.78V41.48a.55.55,0,0,0,.52.52h8.81a.55.55,0,0,0,.52-.52v-23C121.68,18.32,121.51,18,121.33,18Z"/><path class="cls-1" d="M32.32,14.17a5.36,5.36,0,1,0,5.36,5.36A5.39,5.39,0,0,0,32.32,14.17Z"/><path class="cls-1" d="M19.53,27a5.36,5.36,0,1,0,5.36,5.36A5.38,5.38,0,0,0,19.53,27Z"/><path class="cls-1" d="M32.32,27a5.36,5.36,0,1,0,5.36,5.36A5.39,5.39,0,0,0,32.32,27Z"/><path class="cls-1" d="M19.53,14.17a5.36,5.36,0,1,0,5.36,5.36A5.38,5.38,0,0,0,19.53,14.17Z"/><path class="cls-1" d="M159.18,17.46c-7.78,0-13.31,5.7-13.31,12.27S151.41,42,159,42c7.78,0,13.31-5.7,13.31-12.27S166.79,17.46,159.18,17.46Zm0,16.59a4,4,0,0,1-3.8-4.15,3.92,3.92,0,0,1,3.8-4.15c2.07-.17,3.8,1.73,3.8,4.15A3.92,3.92,0,0,1,159.18,34Z"/><path class="cls-1" d="M112.35,10.2a.55.55,0,0,0-.52.52v5.36a.55.55,0,0,0,.52.52h9.16a.55.55,0,0,0,.52-.52V10.54c-.17-.17-.35-.35-.52-.35Z"/><path class="cls-1" d="M144.67,10.2h-9.16a.55.55,0,0,0-.52.52v5.36a.55.55,0,0,0,.52.52h9.16a.55.55,0,0,0,.52-.52V10.54C145.19,10.37,145,10.2,144.67,10.2Z"/><path class="cls-1" d="M144.49,18h-8.81a.55.55,0,0,0-.52.52V41.31a.55.55,0,0,0,.52.52h8.81a.55.55,0,0,0,.52-.52V18.49A.55.55,0,0,0,144.49,18Z"/><path class="cls-1" d="M132.91,10.2H124.1a.55.55,0,0,0-.52.52V41.31a.55.55,0,0,0,.52.52h8.81a.55.55,0,0,0,.52-.52V10.54C133.43,10.37,133.26,10.2,132.91,10.2Z"/><path class="cls-1" d="M172.31,36.58h4V41.2h-4Z"/><path class="cls-1" d="M175.91,29.93v-.09a11.86,11.86,0,0,1,23.72-.09v.09a11.81,11.81,0,0,1-11.93,11.88A11.66,11.66,0,0,1,175.91,29.93Zm20.24,0v-.09A8.61,8.61,0,0,0,187.71,21c-4.93,0-8.32,4-8.32,8.8v.09a8.53,8.53,0,0,0,8.41,8.84C192.72,38.69,196.16,34.73,196.16,29.93Z"/><path class="cls-1" d="M202.23,18.45h3.39v5.94c1.67-3.78,5-6.51,9.29-6.34V21.7h-.26c-5,0-9,3.56-9,10.43V42.2h-3.39Z"/><path class="cls-1" d="M215.82,45.16l1.54-2.64a14.54,14.54,0,0,0,8.76,2.9c5,0,8.27-2.77,8.27-8.1V34.64a10.78,10.78,0,0,1-8.93,4.8,10.52,10.52,0,0,1-10.69-10.65V28.7a10.77,10.77,0,0,1,19.58-6.16V18.45h3.39V37.24c0,3.52-1.06,6.21-2.9,8.05-2,2-5.06,3-8.67,3A17.84,17.84,0,0,1,215.82,45.16Zm18.66-16.42v-.09c0-4.66-4-7.7-8.36-7.7a7.52,7.52,0,0,0-7.88,7.66v.09a7.7,7.7,0,0,0,7.88,7.75C230.43,36.44,234.48,33.32,234.48,28.74Z"/></g></g></g></svg>