<?xml version="1.0" encoding="utf-8"?>
<!-- Generator: Adobe Illustrator 21.0.2, SVG Export Plug-In . SVG Version: 6.00 Build 0)  -->
<svg version="1.1" id="Layer_1" xmlns="http://www.w3.org/2000/svg" xmlns:xlink="http://www.w3.org/1999/xlink" x="0px" y="0px"
	 viewBox="0 0 100 100" style="enable-background:new 0 0 100 100;" xml:space="preserve">
<style type="text/css">
	.st0{fill:#FFFFFF;}
	.st1{fill:url(#SVGID_1_);}
	.st2{fill:none;stroke:#FFFFFF;stroke-width:3;stroke-miterlimit:10;}
</style>
<polygon class="st0" points="90.9,67.3 92.3,67.3 93.3,67.3 93.3,68.3 93.3,78.9 95.1,78.9 95.1,66.1 90.9,66.1 "/>
<polygon class="st0" points="90.9,84.6 92.3,84.6 93.3,84.6 93.3,85.6 93.3,96.2 95.1,96.2 95.1,83.4 90.9,83.4 "/>
<path class="st0" d="M94.9,48.6c-0.6-0.3-1.3-0.4-1.9-0.4c-0.6,0-1.2,0.1-1.9,0.4c-2.2,0.9-2.7,2.8-2.7,4.3V57
	c0,1.4,0.5,3.3,2.7,4.2c0.6,0.3,1.2,0.4,1.9,0.4c0.7,0,1.4-0.2,2-0.4c2-0.9,2.4-2.8,2.4-4.2v-4.1C97.5,51.4,97,49.5,94.9,48.6z
	 M95.7,57.1c0,2-1,3.2-2.7,3.2c-1.7,0-2.7-1.3-2.7-3.2v-4.3c0-1.9,1.1-3.2,2.7-3.2c1.7,0,2.7,1.2,2.7,3.2V57.1z"/>
<g>
	<polygon class="st0" points="3.8,49.7 5.2,49.7 6.2,49.7 6.2,50.7 6.2,61.3 8,61.3 8,48.5 3.8,48.5 	"/>
	<polygon class="st0" points="28.7,49.7 30.1,49.7 31.1,49.7 31.1,50.7 31.1,61.3 32.9,61.3 32.9,48.5 28.7,48.5 	"/>
	<polygon class="st0" points="17.2,67.3 18.6,67.3 19.6,67.3 19.6,68.3 19.6,78.9 21.4,78.9 21.4,66.1 17.2,66.1 	"/>
	<polygon class="st0" points="17.2,84.6 18.6,84.6 19.6,84.6 19.6,85.6 19.6,96.2 21.4,96.2 21.4,83.4 17.2,83.4 	"/>
	<polygon class="st0" points="28.7,67.3 30.1,67.3 31.1,67.3 31.1,68.3 31.1,78.9 32.9,78.9 32.9,66.1 28.7,66.1 	"/>
	<path class="st0" d="M21.2,48.6c-0.6-0.3-1.3-0.4-1.9-0.4c-0.6,0-1.2,0.1-1.9,0.4c-2.2,0.9-2.7,2.8-2.7,4.3V57
		c0,1.4,0.5,3.3,2.7,4.2c0.6,0.3,1.2,0.4,1.9,0.4c0.7,0,1.4-0.2,2-0.4c2-0.9,2.4-2.8,2.4-4.2v-4.1C23.8,51.4,23.3,49.5,21.2,48.6z
		 M22,57.1c0,2-1,3.2-2.7,3.2c-1.7,0-2.7-1.3-2.7-3.2v-4.3c0-1.9,1.1-3.2,2.7-3.2c1.7,0,2.7,1.2,2.7,3.2V57.1z"/>
	<polygon class="st0" points="68.1,67.3 69.5,67.3 70.5,67.3 70.5,68.3 70.5,78.9 72.3,78.9 72.3,66.1 68.1,66.1 	"/>
	<polygon class="st0" points="79.6,67.3 81,67.3 82,67.3 82,68.3 82,78.9 83.8,78.9 83.8,66.1 79.6,66.1 	"/>
	<path class="st0" d="M72.1,83.5c-0.6-0.3-1.3-0.4-1.9-0.4c-0.6,0-1.2,0.1-1.9,0.4c-2.2,0.9-2.7,2.8-2.7,4.2v4.1
		c0,1.4,0.5,3.3,2.7,4.2c0.6,0.3,1.2,0.4,1.9,0.4c0.7,0,1.4-0.2,2-0.4c2-0.9,2.5-2.8,2.5-4.2v-4.1C74.7,86.3,74.2,84.4,72.1,83.5z
		 M72.9,91.9c0,2-1,3.2-2.7,3.2c-1.7,0-2.7-1.3-2.7-3.2v-4.3c0-1.9,1.1-3.2,2.7-3.2c1.7,0,2.7,1.2,2.7,3.2V91.9z"/>
	<path class="st0" d="M7.8,66.2C7.2,66,6.6,65.8,6,65.8c-0.6,0-1.2,0.1-1.9,0.4c-2.2,0.9-2.7,2.8-2.7,4.3v4.1c0,1.4,0.5,3.3,2.7,4.2
		c0.6,0.3,1.2,0.4,1.9,0.4c0.7,0,1.4-0.2,2-0.4c2-0.9,2.5-2.8,2.5-4.2v-4.1C10.4,69.1,10,67.2,7.8,66.2z M8.6,74.7
		c0,2-1,3.2-2.7,3.2c-1.7,0-2.7-1.3-2.7-3.2v-4.3c0-1.9,1.1-3.2,2.7-3.2c1.7,0,2.7,1.2,2.7,3.2V74.7z"/>
	<polygon class="st0" points="41.2,49.7 42.6,49.7 43.6,49.7 43.6,50.7 43.6,61.3 45.4,61.3 45.4,48.5 41.2,48.5 	"/>
	<polygon class="st0" points="54.6,67.3 56,67.3 57,67.3 57,68.3 57,78.9 58.8,78.9 58.8,66.1 54.6,66.1 	"/>
	<polygon class="st0" points="54.6,84.6 56,84.6 57,84.6 57,85.6 57,96.2 58.8,96.2 58.8,83.4 54.6,83.4 	"/>
	<path class="st0" d="M45.2,66.2c-0.6-0.3-1.3-0.4-1.9-0.4c-0.6,0-1.2,0.1-1.9,0.4c-2.2,0.9-2.7,2.8-2.7,4.3v4.1
		c0,1.4,0.5,3.3,2.7,4.2c0.6,0.3,1.2,0.4,1.9,0.4c0.7,0,1.4-0.2,2-0.4c2-0.9,2.5-2.8,2.5-4.2v-4.1C47.8,69.1,47.4,67.2,45.2,66.2z
		 M46.1,74.7c0,2-1,3.2-2.7,3.2c-1.7,0-2.7-1.3-2.7-3.2v-4.3c0-1.9,1.1-3.2,2.7-3.2c1.7,0,2.7,1.2,2.7,3.2V74.7z"/>
	<g>
		<path class="st0" d="M58.8,62.2c-0.1,0-0.2,0.1-0.3,0.1C58.5,62.3,58.7,62.2,58.8,62.2z"/>
		<path class="st0" d="M85.6,17.3l-0.7,0l-0.1-0.8c-1.3-7.5-7.8-13-15.5-13c-7.1,0-13.4,4.8-15.2,11.7l-0.4,1.5l-1.2-1
			c-2.8-2.3-6.2-3.5-9.8-3.5c-7.6,0-14.3,5.7-15.5,13.2l-0.2,1.5l-1.3-0.8c-2.5-1.7-5.5-2.5-8.5-2.5c-8.7,0-15.7,7-15.7,15.7
			c0,1.4,0.2,2.8,0.6,4.2l5,0l20.1,0l5.8,0l7.9,0l0.9,0h0l0,0c0.1,0,0.2,0,0.3,0l0.6,0l1.7,0l0,0l0.1,0l6.1,0l0.7,0l0.2,0.6
			c0.5,1.3,1.2,2.6,2.1,3.7l0.6,0.7l-0.7,0.6c-0.9,0.8-1.4,2-1.4,3.4V57c0,1.4,0.5,3.3,2.7,4.2c0.6,0.3,1.2,0.4,1.9,0.4
			c0.7,0,1.4-0.2,2-0.4c2-0.9,2.4-2.8,2.4-4.2v-2.1v-1.3l1.2,0.3c0.7,0.2,1.5,0.3,2.3,0.4l0.9,0.1v0.9V57c0,1.4,0.5,3.3,2.7,4.2
			c0.6,0.3,1.2,0.4,1.9,0.4c0.7,0,1.4-0.2,2-0.4c2-0.9,2.4-2.8,2.4-4.2v-4.6v-0.5l0.4-0.3c0.7-0.5,1.3-1,2-1.6l0.3-0.3h0.4H81h1v1
			v10.6h1.8V48.5h-3.4h-1.8l1-1.5c0.5-0.9,1-1.7,1.3-2.6l0.2-0.6l0.7,0l1.1,0l11.2,0l0.1-0.1c2.8-2.9,4.4-6.8,4.4-10.9
			C98.6,25.1,93.2,18.6,85.6,17.3z M30.5,40.4L30.5,40.4L30.5,40.4l-2.1,0l-22.7,0l-1,0v-1c0-6.8,5.5-12.4,12.4-12.4
			c4.5,0,8.7,2.5,10.8,6.4l-0.3,0.2l0.3-0.1c0.7,2,1.8,3.7,3.3,5.2l1.6,1.7H30.5z M59.4,53.4v3.6c0,2-1,3.2-2.7,3.2
			c-1.7,0-2.7-1.3-2.7-3.2v-4.3c0-0.8,0.2-1.5,0.5-2l0.6-1l0.9,0.8c0.9,0.8,1.9,1.5,2.9,2l0.5,0.3V53.4z M72.9,54.3v2.7
			c0,2-1,3.2-2.7,3.2c-1.7,0-2.7-1.3-2.7-3.2v-1.9v-0.9l0.9-0.1c1.1-0.1,2.2-0.4,3.3-0.8l1.3-0.5V54.3z M92.8,40.2l-0.3,0.4l-0.5,0
			l-13.6,0c-0.1,1-0.4,1.9-0.8,2.9C75.7,48,71.2,51,66.2,51c-6.1,0-11.4-4.6-12.2-10.6l-3.4,0l0,0l-1.1,0l-7.4,0
			c-6.6-0.3-11.8-5.8-11.8-12.5c0-6.8,5.5-12.4,12.4-12.4c6.5,0,11.8,5,12.3,11.4h3.3c0,0,0-0.1,0-0.1c0-0.2,0-0.4-0.1-0.6l0-0.1
			l0-0.1c0-0.2-0.1-0.5-0.1-0.7l0-0.1c-0.1-0.8-0.3-1.5-0.6-2.3l0-0.1l0-0.1l-0.6-3.4l0-0.1v-0.1c0-6.8,5.5-12.4,12.4-12.4
			c5.3,0,10,3.4,11.7,8.4l0.1,0l0.2,0.8c0.2,1,0.4,2,0.4,3c0,0.5,0,0.9-0.1,1.4c0.4,0,0.9-0.1,1.3-0.1c1.1,0,2.1,0.1,3.1,0.4
			c5.4,1.4,9.2,6.3,9.2,12C95.3,35.5,94.4,38,92.8,40.2z"/>
	</g>
</g>
<path class="st0" d="M-69.7,99.9C-69.7,99.9-69.7,99.9-69.7,99.9c0.2,0,0.2,0.1,0.3,0.1C-69.5,100-69.6,99.9-69.7,99.9
	C-69.7,99.9-69.7,99.9-69.7,99.9z"/>
<linearGradient id="SVGID_1_" gradientUnits="userSpaceOnUse" x1="258.3104" y1="-31.6707" x2="161.6896" y2="135.6707" gradientTransform="matrix(1 0 0 -1 0 102)">
	<stop  offset="0" style="stop-color:#599F59"/>
	<stop  offset="0.31" style="stop-color:#479968"/>
	<stop  offset="0.68" style="stop-color:#399474"/>
	<stop  offset="1" style="stop-color:#349278"/>
</linearGradient>
<circle class="st1" cx="210" cy="50" r="96.6"/>
<path class="st2" d="M263.4,89.6c-6.8,14.9-21.6,17.1-26.5,17c-1.4,0-23.5,0.5-54.4-30.6c-24.8-25-27.1-51.2-27.2-56.1
	S157,2.9,173.9-5.6c2.1-1,6.2-1.4,7.2-0.3c0.4,0.5,13.7,23.9,14,24.7c0.3,0.7,0.5,1.5,0.5,2.2c0,1-0.8,2.3-2.4,3.9
	c-1.5,1.5-3.2,2.9-5,4.2c-1.8,1.2-3.4,2.6-5,4c-1.6,1.4-2.3,2.6-2.4,3.6c0,2.4,1.8,11.3,16.7,25.2s22.2,17.9,22.8,18.2
	c0.6,0.2,1.2,0.4,1.8,0.4c0.9,0,2.2-0.7,3.7-2.1c1.5-1.5,6.7-8.1,8.3-9.5s3-2.2,4-2.1c0.8,0,1.5,0.3,2.2,0.6
	c0.7,0.4,23.4,14.6,23.8,15C265.3,83.6,264.4,87.4,263.4,89.6L263.4,89.6z"/>
<g>
	<path class="st0" d="M-29.2,30.6c-0.1-0.1-0.1-0.1-0.2-0.2c0,0,0,0-0.1,0c0,0,0,0,0.1,0C-29.3,30.5-29.2,30.6-29.2,30.6z"/>
	<path class="st0" d="M-68.2,49.5l-28.5-15.8l-1.7-0.9l1.7-0.8l15.4-7.4c-0.9-0.8-1.6-1.7-2.3-2.6l-19.2,9.2l0,0l-0.1,0
		c0,0-0.1,0.1-0.2,0.1c-0.1,0-0.1,0.1-0.2,0.1l0,0l0,0c0,0-0.1,0.1-0.1,0.1c-0.1,0.1-0.1,0.1-0.1,0.2l0,0.1l0,0l0,0l0,0l0,0.1
		l-0.9-0.4l0.9,0.4c0,0,0,0.1-0.1,0.2c0,0.1,0,0.2,0,0.2c0,0.1,0,0.2,0,0.2v13.2v30.7c0,0.6,0.3,1.2,0.9,1.5l35.5,19.7
		c0.1,0,0.1,0.1,0.2,0.1c0.1,0,0.1,0,0.2,0.1l0,0l0,0c0,0,0.1,0,0.1,0l-0.1,1l0.1-1c0.1,0,0.1,0,0.2,0c0.1,0,0.1,0,0.2,0
		c0.1,0,0.1,0,0.2,0l0,0l0,0c0.1,0,0.1,0,0.2-0.1c0,0,0.1,0,0.1,0l0,0l0.1-0.1L-30.1,78c0.5-0.3,0.9-0.9,0.9-1.5V46l0-0.2V32.8l0,0
		l0-0.2c0-0.1,0-0.1,0-0.2c0-0.1,0-0.1,0-0.2l0,0c0-0.1,0-0.1-0.1-0.2l0,0l0-0.1c0,0,0-0.1,0-0.1l0,0l0-0.1c0,0-0.1-0.1-0.1-0.2l0,0
		l0,0c0,0-0.1-0.1-0.1-0.1l0,0l0,0c0,0-0.1-0.1-0.1-0.1l0,0c-0.1,0-0.1-0.1-0.2-0.1l-0.1,0l0,0L-49,22.1c-0.7,0.9-1.5,1.8-2.4,2.6
		l15.1,7.3l1.7,0.8l-1.7,0.9L-62.5,48l0,0l0,0L-68.2,49.5z M-68.1,67.2v24.6v1.7l-1.5-0.8l-30.2-16.7l-0.5-0.3V75V50.4v-1.7l1.5,0.8
		l30.2,16.7l0.5,0.3V67.2z M-68.1,53.9v7.1v1.7l-1.5-0.8l-30.2-16.7l-0.5-0.3v-0.6v-7.1v-1.7l1.5,0.8l30.2,16.7l0.5,0.3V53.9z
		 M-32.6,50.4V75v0.6l-0.5,0.3l-30.2,16.7l-1.5,0.8v-1.7V67.2v-0.6l0.5-0.3l30.2-16.7l1.5-0.8V50.4z M-32.6,37.2v7.1v0.6l-0.5,0.3
		L-63.3,62l-1.5,0.8v-1.7v-7.1v-0.6l0.5-0.3l30.2-16.7l1.5-0.8V37.2z"/>
	<path class="st0" d="M-28.3,32C-28.3,31.9-28.3,31.9-28.3,32c0-0.2-0.1-0.3-0.1-0.4C-28.4,31.7-28.4,31.8-28.3,32
		C-28.3,31.9-28.3,31.9-28.3,32z"/>
	<path class="st0" d="M-104.6,32.3C-104.6,32.3-104.6,32.3-104.6,32.3c0,0.2,0,0.3,0,0.4C-104.7,32.5-104.7,32.4-104.6,32.3
		C-104.6,32.3-104.6,32.3-104.6,32.3z"/>
	<path class="st0" d="M-103.2,30.3C-103.2,30.3-103.2,30.3-103.2,30.3c-0.1,0.1-0.2,0.1-0.3,0.2C-103.4,30.4-103.3,30.3-103.2,30.3
		C-103.2,30.3-103.2,30.3-103.2,30.3z"/>
	<g>
		<path class="st0" d="M-69,39.5c-2.7-10.6-12.1-8.1-12.1-8.1S-81.2,40.2-69,39.5z"/>
	</g>
	<g>
		<path class="st0" d="M-62.5,48.6c1.2-8.1,0.3-15.6-0.4-19.9c8.3-2.3,15.5-9.1,16.4-17.7c-11.5-0.8-15.2,1.6-18.1,12.4
			c0-21.6-20-22.7-20-22.7c-4.2,14.6,3,23.8,14.3,27.8c0,0,0.9,0.2,2,0.4c0.7,3.9,1.8,12.1,0.2,20.7C-68.1,49.6-66.4,49.6-62.5,48.6
			z"/>
	</g>
</g>
</svg>
