<svg id="Layer_1" data-name="Layer 1" xmlns="http://www.w3.org/2000/svg" viewBox="0 0 200 200"><title>handcuffs</title><path d="M184.64,60.5a30.3,30.3,0,0,0-20.21-8.63,9.92,9.92,0,0,0-16.94-7.69h0l-2.55,2.55-9.83-9.83a4.1,4.1,0,0,0-5.63,0L119.29,47.1l-6.35-5a9.87,9.87,0,0,0-6.13-10.35l-4.11-1.7a10.26,10.26,0,0,0-3.95-.79,9.62,9.62,0,0,0-7.86,4l-7.67-.57a9.61,9.61,0,0,0-7.94-4.07,10.23,10.23,0,0,0-3.94.79l-4.11,1.7a10.14,10.14,0,0,0-5.38,5.15,9.23,9.23,0,0,0-.43,6.6l-4.34,5a9.08,9.08,0,0,0-1.49-.15A9.92,9.92,0,0,0,46.47,54l-1.7,4.11a9.87,9.87,0,0,0,3,11.66l-1,8.13H32.93a4,4,0,0,0-4,4v18.9C15.62,107.3,6.62,119.56,6.62,133.58c0,20.85,19.87,37.8,44.28,37.8a9.91,9.91,0,0,0,8.45-4.75c18.18-3.27,31.85-16.84,31.85-33.06A30.29,30.29,0,0,0,83,113.21a9.92,9.92,0,0,0-6.52-17.43H72.86V81.88a4,4,0,0,0-4-4H54.28l.79-6.46a10.14,10.14,0,0,0,7.27-6L64,61.28a10.08,10.08,0,0,0-.71-9.21l3-3.51a10,10,0,0,0,4.2.92,10.22,10.22,0,0,0,3.94-.79L78.61,47A10.15,10.15,0,0,0,84,41.84a9.76,9.76,0,0,0,.54-1.57l4.87.36a10.08,10.08,0,0,0,6,7l4.11,1.7a10.26,10.26,0,0,0,3.95.79A9.86,9.86,0,0,0,109,48.5l5,3.92-9.91,9.91a4,4,0,0,0,0,5.63l13.37,13.38c-4.8,14-2.52,29.05,7.4,39a34.58,34.58,0,0,0,24.83,9.84c11.49,0,23.69-4.9,33.22-14.42a9.92,9.92,0,0,0,2.62-9.33,42.94,42.94,0,0,0,7.68-20C194.23,76.24,191.2,67.06,184.64,60.5ZM50.9,164.43a3,3,0,1,1,3-3A3,3,0,0,1,50.9,164.43Zm28.35-30.85c0,10.11-9,18.62-21.05,21.11a9.89,9.89,0,0,0-7.29-3.22c-13.21,0-24.37-8.19-24.37-17.89S37.7,115.7,50.9,115.7H67.16C74.46,119.65,79.25,126.19,79.25,133.58Zm-24.37-42v6.48a4,4,0,1,1-8,0V91.59a4,4,0,1,1,8,0Zm2.26-33.17-1.7,4.11a2.8,2.8,0,0,1-.44.69,3.72,3.72,0,0,0-2.52-1.45,3.86,3.86,0,0,0-1,0,2.89,2.89,0,0,1,.19-.84l1.7-4.11a2.9,2.9,0,0,1,.32-.55,3.78,3.78,0,0,0,.55.6,3.72,3.72,0,0,0,2.44.9,3.9,3.9,0,0,0,.63-.07A2.66,2.66,0,0,1,57.15,58.42ZM75.76,40.09l-4.11,1.7a2.69,2.69,0,0,1-.58.13,3.72,3.72,0,0,0-1.28-3.06,3.57,3.57,0,0,0-.49-.34,2.8,2.8,0,0,1,.78-.5l4.11-1.7a2.84,2.84,0,0,1,1.09-.22l.22,0a3.72,3.72,0,0,0,1.45,3A2.73,2.73,0,0,1,75.76,40.09Zm28.18-.25a3.72,3.72,0,0,0-.75,2.81,2.79,2.79,0,0,1-.8-.18l-4.11-1.7a2.92,2.92,0,0,1-.59-.37,3.71,3.71,0,0,0,1.57-2.76,3.68,3.68,0,0,0,0-.77,2.88,2.88,0,0,1,.61.12l4.11,1.7a2.8,2.8,0,0,1,.73.46A3.64,3.64,0,0,0,103.94,39.83Zm27.1,28a4,4,0,0,1-2.82-1.17l-4.58-4.58a4,4,0,1,1,5.63-5.63l4.58,4.58a4,4,0,0,1-2.82,6.8ZM178,110.81a3,3,0,1,1,0-4.26A3,3,0,0,1,178,110.81Zm3.33-25.67a30.7,30.7,0,0,1-5.06,13.63,9.9,9.9,0,0,0-7.44,2.88c-9.34,9.34-23,11.44-29.88,4.58s-4.76-20.54,4.58-29.87l10.91-10.91.59-.59c8-2.36,16-1.12,21.2,4.1C180.16,72.91,182,78.66,181.29,85.14Z" style="fill:none;stroke:#fff;stroke-miterlimit:10;stroke-width:3px"/></svg>