<svg id="Layer_1" data-name="Layer 1" xmlns="http://www.w3.org/2000/svg" viewBox="10 0 97 107.67"><title>plant</title><path d="M45.27,103.9l.08,0,.23,0-.23,0Z" style="fill:#fff"/><path d="M46.83,53.52,18.34,37.71l-1.69-.94,1.74-.84L33.8,28.57A18.5,18.5,0,0,1,31.52,26L12.33,35.13h0l-.09,0-.15.09-.16.13h0l0,0-.14.15-.12.17,0,.06v0l0,0,0,0,0,.06-.93-.38.9.43a1.65,1.65,0,0,0-.06.18c0,.1,0,.16,0,.23a1.87,1.87,0,0,0,0,.25V80.57A1.68,1.68,0,0,0,12.2,82l35.54,19.71.18.09.19.06h.05l.14,0-.09,1,.15-1h.38l.19,0H49l.18-.06.08,0,0,0,.14-.06L84.9,82a1.68,1.68,0,0,0,.86-1.46V36.83h0v-.16a1.73,1.73,0,0,0,0-.22c0-.09,0-.15,0-.2v0a1.4,1.4,0,0,0-.07-.19h0l0-.07,0-.08,0,0,0-.06-.11-.15h0l0,0-.12-.12,0,0,0,0L85,35.3l0,0-.17-.1-.07,0h0L66,26.07a18.8,18.8,0,0,1-2.37,2.57l15.13,7.29,1.74.84-1.69.94L52.53,52h0Zm0,17.68V97.45l-1.48-.82L15.19,79.88l-.52-.29V52.75l1.49.82,30.2,16.75.52.29Zm0-13.25v8.84L45.39,66,15.19,49.21l-.52-.29V39.5l1.48.82,30.2,16.75.52.29Zm35.54-3.5V79.59l-.52.29L51.7,96.62l-1.48.82V70.61l.52-.29,30.2-16.75,1.48-.82Zm0-13.25v7.73l-.52.29L51.7,66l-1.48.82V57.36l.52-.29,30.2-16.75,1.48-.82Z" style="fill:#fff"/><path d="M46,43.53c-2.67-10.63-12.14-8.12-12.14-8.12S33.84,44.16,46,43.53Z" style="fill:#fff"/><path d="M52.52,52.62a65.94,65.94,0,0,0-.37-19.85C60.45,30.45,67.62,23.67,68.5,15,57,14.2,53.34,16.59,50.42,27.4c0-21.61-20-22.67-20-22.67-4.2,14.57,3,23.79,14.31,27.78,0,0,.86.21,2,.37a60.32,60.32,0,0,1,.2,20.68A26,26,0,0,0,52.52,52.62Z" style="fill:#fff"/></svg>