<svg id="Layer_1" data-name="Layer 1" xmlns="http://www.w3.org/2000/svg" xmlns:xlink="http://www.w3.org/1999/xlink" viewBox="0 0 209.09 209.09"><defs><linearGradient id="linear-gradient" x1="156.83" y1="195.1" x2="52.26" y2="13.99" gradientUnits="userSpaceOnUse"><stop offset="0" stop-color="#599f59"/><stop offset="0.31" stop-color="#479968"/><stop offset="0.68" stop-color="#399474"/><stop offset="1" stop-color="#349278"/></linearGradient></defs><title>CallPwr</title><circle cx="104.55" cy="104.55" r="104.55" style="fill:url(#linear-gradient)"/><path d="M30.39,158.78a13.24,13.24,0,0,1,.82-4.54,12.55,12.55,0,0,1,2.4-4.06,12.14,12.14,0,0,1,3.86-2.9,11.69,11.69,0,0,1,5.16-1.1,11,11,0,0,1,5.91,1.53,10,10,0,0,1,3.7,4l-3.13,2.1a7.16,7.16,0,0,0-1.28-1.92,6.26,6.26,0,0,0-1.64-1.25,7.08,7.08,0,0,0-1.85-.66,9.32,9.32,0,0,0-1.85-.2,7.28,7.28,0,0,0-3.49.8,7.74,7.74,0,0,0-2.51,2.12,9.45,9.45,0,0,0-1.53,3,10.85,10.85,0,0,0-.52,3.27,10.26,10.26,0,0,0,.61,3.52,9.51,9.51,0,0,0,1.69,3,8.32,8.32,0,0,0,2.58,2,7.08,7.08,0,0,0,3.27.76,8.22,8.22,0,0,0,1.9-.23,7.1,7.1,0,0,0,1.89-.75,7.59,7.59,0,0,0,1.67-1.3A6.52,6.52,0,0,0,49.32,164l3.31,1.89a7.74,7.74,0,0,1-1.71,2.51,10.87,10.87,0,0,1-2.49,1.83,12.74,12.74,0,0,1-2.94,1.14,12.39,12.39,0,0,1-3,.39,10.47,10.47,0,0,1-4.88-1.14,12.8,12.8,0,0,1-3.81-3,13.69,13.69,0,0,1-2.49-4.17A13.21,13.21,0,0,1,30.39,158.78Z" style="fill:#fff"/><path d="M63.42,146.32h3.49l10,25.27h-4.2L70,164.72H60.25l-2.63,6.87H53.38Zm5.8,15.45-4.06-10.86L61,161.77Z" style="fill:#fff"/><path d="M80,171.59V146.32h4v21.75H97.55v3.52Z" style="fill:#fff"/><path d="M100.79,171.59V146.32h4v21.75h13.56v3.52Z" style="fill:#fff"/><path d="M123.22,138.36H131a3.93,3.93,0,0,1,1.85.43,4.17,4.17,0,0,1,1.38,1.16,5.57,5.57,0,0,1,.86,1.66,6.1,6.1,0,0,1,.31,1.91,6.72,6.72,0,0,1-.56,2.65,8.37,8.37,0,0,1-1.51,2.36,7.65,7.65,0,0,1-2.2,1.69,5.74,5.74,0,0,1-2.65.64h-6l-1.56,7.3H119Zm5.55,10.76a3.71,3.71,0,0,0,1.81-.47,5,5,0,0,0,1.49-1.24,6.32,6.32,0,0,0,1-1.74,5.46,5.46,0,0,0,.38-2,4.63,4.63,0,0,0-.21-1.41,3.54,3.54,0,0,0-.6-1.14,2.85,2.85,0,0,0-.93-.77,2.57,2.57,0,0,0-1.19-.28h-5.74l-1.92,9Z" style="fill:#fff"/><path d="M137.3,138.36h2.09l3,17.54,5.44-8.95-1.48-8.45h1.84l1.12,7,4.15-7h1.84l-5.07,8.45,1.64,8.95,10.43-17.54h2.15l-12.18,19.79h-1.67l-1.84-9.79-6,9.79H141Z" style="fill:#fff"/><path d="M163.11,158.16l4.21-19.79h7.95a4,4,0,0,1,1.87.43,4.14,4.14,0,0,1,1.39,1.16,5.57,5.57,0,0,1,.86,1.66,6.1,6.1,0,0,1,.31,1.91,6.51,6.51,0,0,1-.45,2.36,8,8,0,0,1-1.2,2.1,7.8,7.8,0,0,1-1.77,1.63,5.85,5.85,0,0,1-2.16.91l3,7.64h-2.2l-2.84-7.3H166.6l-1.56,7.3Zm10-9a3.64,3.64,0,0,0,1.8-.47,5.09,5.09,0,0,0,1.48-1.24,6.09,6.09,0,0,0,1-1.73,5.47,5.47,0,0,0,.36-1.94,4.6,4.6,0,0,0-.21-1.41,3.85,3.85,0,0,0-.58-1.16,2.79,2.79,0,0,0-.92-.79,2.46,2.46,0,0,0-1.18-.29h-5.91l-1.92,9Z" style="fill:#fff"/><path d="M150.34,106.13c-5.62,12.42-18,14.24-22,14.11-1.17,0-19.57.38-45.21-25.49C62.5,73.94,60.58,52.19,60.47,48.07S61.83,34,75.9,27c1.76-.87,5.16-1.17,6-.27.37.39,11.4,19.89,11.67,20.52A4.32,4.32,0,0,1,94,49.1c0,.86-.69,1.94-2,3.22a30.84,30.84,0,0,1-4.18,3.47,39.44,39.44,0,0,0-4.16,3.35c-1.29,1.18-1.94,2.18-2,3,0,2,1.47,9.39,13.86,21S114,98,114.59,98.22a4.69,4.69,0,0,0,1.48.37c.78,0,1.81-.56,3.06-1.78s5.56-6.7,6.9-7.91,2.46-1.79,3.33-1.77a4.38,4.38,0,0,1,1.86.52c.62.32,19.42,12.11,19.77,12.49,1,1.05.16,4.22-.65,6Z" style="fill:none;stroke:#fff;stroke-miterlimit:10;stroke-width:2px"/></svg>