<svg id="Layer_1" data-name="Layer 1" xmlns="http://www.w3.org/2000/svg" xmlns:xlink="http://www.w3.org/1999/xlink" viewBox="0 0 209.09 209.09"><defs><linearGradient id="linear-gradient" x1="156.83" y1="195.1" x2="52.26" y2="13.99" gradientUnits="userSpaceOnUse"><stop offset="0" stop-color="#599f59"/><stop offset="0.31" stop-color="#479968"/><stop offset="0.68" stop-color="#399474"/><stop offset="1" stop-color="#349278"/></linearGradient></defs><title>CallPwr</title><circle cx="104.55" cy="104.55" r="104.55" style="fill:url(#linear-gradient)"/><path d="M162.31,147.4c-7.32,16.16-23.39,18.52-28.63,18.36-1.53-.05-25.47.5-58.82-33.16C48,105.51,45.51,77.21,45.37,71.85s1.77-18.28,20.08-27.46c2.29-1.13,6.71-1.53,7.84-.35.47.51,14.83,25.88,15.19,26.7A5.62,5.62,0,0,1,89,73.19c0,1.12-.9,2.53-2.56,4.18A40.13,40.13,0,0,1,81,81.89a51.31,51.31,0,0,0-5.41,4.36c-1.68,1.54-2.52,2.84-2.56,3.86,0,2.65,1.92,12.22,18,27.28s24,19.41,24.72,19.72a6.1,6.1,0,0,0,1.92.48c1,0,2.35-.73,4-2.32s7.23-8.72,9-10.3,3.2-2.32,4.33-2.3a5.7,5.7,0,0,1,2.41.68c.8.41,25.27,15.76,25.73,16.26,1.26,1.37.21,5.49-.85,7.79Z" style="fill:none;stroke:#fff;stroke-miterlimit:10;stroke-width:3px"/></svg>