<svg id="Layer_1" data-name="Layer 1" xmlns="http://www.w3.org/2000/svg" xmlns:xlink="http://www.w3.org/1999/xlink" viewBox="0 0 209.09 209.09"><defs><linearGradient id="linear-gradient" x1="156.83" y1="195.1" x2="52.26" y2="13.99" gradientUnits="userSpaceOnUse"><stop offset="0" stop-color="#0094d4"/><stop offset="0.16" stop-color="#1082c6"/><stop offset="0.37" stop-color="#1d73bb"/><stop offset="0.62" stop-color="#256bb4"/><stop offset="1" stop-color="#2768b2"/></linearGradient></defs><title>DialPwr</title><circle cx="104.55" cy="104.55" r="104.55" style="fill:url(#linear-gradient)"/><path d="M36.79,171.59V146.32h9a13.37,13.37,0,0,1,5.36,1A11,11,0,0,1,55,150a11.34,11.34,0,0,1,2.33,4,15.08,15.08,0,0,1,.78,4.89,14.79,14.79,0,0,1-.87,5.21,11.39,11.39,0,0,1-2.47,4,11,11,0,0,1-3.88,2.56,13.66,13.66,0,0,1-5.09.91ZM54,158.92a11.65,11.65,0,0,0-.55-3.67,8,8,0,0,0-1.62-2.87,7.53,7.53,0,0,0-2.6-1.87,8.56,8.56,0,0,0-3.49-.68h-5v18.23h5a8.57,8.57,0,0,0,3.54-.69,7.28,7.28,0,0,0,2.6-1.92,8.28,8.28,0,0,0,1.58-2.9A11.88,11.88,0,0,0,54,158.92Z" style="fill:#fff"/><path d="M62.28,171.59V146.32h4v25.27Z" style="fill:#fff"/><path d="M79.4,146.32h3.49l10,25.27h-4.2L86,164.72H76.23l-2.63,6.87H69.36Zm5.8,15.45-4.06-10.86-4.2,10.86Z" style="fill:#fff"/><path d="M96,171.59V146.32h4v21.75h13.56v3.52Z" style="fill:#fff"/><path d="M118.41,138.36h7.81a3.92,3.92,0,0,1,1.85.43,4.17,4.17,0,0,1,1.38,1.16,5.53,5.53,0,0,1,.86,1.66,6.07,6.07,0,0,1,.31,1.91,6.71,6.71,0,0,1-.56,2.65,8.34,8.34,0,0,1-1.5,2.36,7.65,7.65,0,0,1-2.2,1.69,5.74,5.74,0,0,1-2.65.64h-6l-1.56,7.3H114.2ZM124,149.12a3.71,3.71,0,0,0,1.81-.47,5,5,0,0,0,1.49-1.24,6.3,6.3,0,0,0,1-1.74,5.46,5.46,0,0,0,.38-2,4.6,4.6,0,0,0-.21-1.41,3.52,3.52,0,0,0-.6-1.14,2.86,2.86,0,0,0-.93-.77,2.56,2.56,0,0,0-1.18-.28H120l-1.92,9Z" style="fill:#fff"/><path d="M132.49,138.36h2.09l3,17.54,5.44-8.95-1.48-8.45h1.84l1.12,7,4.15-7h1.84l-5.07,8.45,1.65,8.95,10.43-17.54h2.15l-12.18,19.79h-1.67l-1.84-9.79-6,9.79h-1.7Z" style="fill:#fff"/><path d="M158.31,158.16l4.21-19.79h7.95a4,4,0,0,1,1.87.43,4.13,4.13,0,0,1,1.39,1.16,5.57,5.57,0,0,1,.86,1.66,6.1,6.1,0,0,1,.31,1.91,6.51,6.51,0,0,1-.45,2.36,8,8,0,0,1-1.2,2.1,7.78,7.78,0,0,1-1.77,1.63,5.86,5.86,0,0,1-2.16.91l3,7.64h-2.2l-2.84-7.3h-5.46l-1.56,7.3Zm10-9a3.64,3.64,0,0,0,1.8-.47,5.11,5.11,0,0,0,1.48-1.24,6.09,6.09,0,0,0,1-1.73,5.47,5.47,0,0,0,.36-1.94,4.6,4.6,0,0,0-.21-1.41,3.87,3.87,0,0,0-.58-1.16,2.79,2.79,0,0,0-.92-.79,2.46,2.46,0,0,0-1.19-.29h-5.91l-1.92,9Z" style="fill:#fff"/><circle cx="103.07" cy="39.04" r="9.56" style="fill:none;stroke:#fff;stroke-miterlimit:10;stroke-width:2px"/><circle cx="103.07" cy="117.05" r="9.56" style="fill:none;stroke:#fff;stroke-miterlimit:10;stroke-width:2px"/><circle cx="103.07" cy="91.17" r="9.56" style="fill:none;stroke:#fff;stroke-miterlimit:10;stroke-width:2px"/><circle cx="103.07" cy="65.11" r="9.56" style="fill:none;stroke:#fff;stroke-miterlimit:10;stroke-width:2px"/><circle cx="77.01" cy="39.04" r="9.56" style="fill:none;stroke:#fff;stroke-miterlimit:10;stroke-width:2px"/><circle cx="77.01" cy="91.17" r="9.56" style="fill:none;stroke:#fff;stroke-miterlimit:10;stroke-width:2px"/><circle cx="77.01" cy="65.11" r="9.56" style="fill:none;stroke:#fff;stroke-miterlimit:10;stroke-width:2px"/><circle cx="129.13" cy="91.17" r="9.56" style="fill:none;stroke:#fff;stroke-miterlimit:10;stroke-width:2px"/><circle cx="129.13" cy="65.11" r="9.56" style="fill:none;stroke:#fff;stroke-miterlimit:10;stroke-width:2px"/><circle cx="129.13" cy="39.04" r="9.56" style="fill:none;stroke:#fff;stroke-miterlimit:10;stroke-width:2px"/></svg>