<svg id="Layer_1" data-name="Layer 1" xmlns="http://www.w3.org/2000/svg" xmlns:xlink="http://www.w3.org/1999/xlink" viewBox="0 0 209.15 209.15"><defs><linearGradient id="linear-gradient" x1="156.85" y1="195.11" x2="52.3" y2="14.03" gradientTransform="translate(173.62 -26.21) rotate(72.83)" gradientUnits="userSpaceOnUse"><stop offset="0" stop-color="#e59f5e"/><stop offset="0.35" stop-color="#e2a647"/><stop offset="0.73" stop-color="#e0ab35"/><stop offset="1" stop-color="#dfad2f"/></linearGradient></defs><title>TextPwr</title><circle cx="104.57" cy="104.57" r="104.55" transform="translate(-26.21 173.62) rotate(-72.83)" style="fill:url(#linear-gradient)"/><circle cx="78.63" cy="103.97" r="10.33" style="fill:none;stroke:#fff;stroke-miterlimit:10;stroke-width:3px"/><circle cx="106.79" cy="103.97" r="10.33" style="fill:none;stroke:#fff;stroke-miterlimit:10;stroke-width:3px"/><circle cx="134.95" cy="103.97" r="10.33" style="fill:none;stroke:#fff;stroke-miterlimit:10;stroke-width:3px"/><path d="M42.59,136.27l-13.77,6.6c-3.88,1.32-1.75-.85-1.23-1.47,4.64-5.53,6-11.78,5.85-13.75L33.5,93A27.17,27.17,0,0,1,60.67,65.86h94.77A27.17,27.17,0,0,1,182.6,93v22.92a27.17,27.17,0,0,1-27.17,27.17H60.67A27.05,27.05,0,0,1,44,137.42Z" style="fill:none;stroke:#fff;stroke-linejoin:round;stroke-width:3px"/></svg>