<svg id="Layer_1" data-name="Layer 1" xmlns="http://www.w3.org/2000/svg" xmlns:xlink="http://www.w3.org/1999/xlink" viewBox="0 0 209.15 209.15"><defs><linearGradient id="linear-gradient" x1="156.85" y1="195.11" x2="52.3" y2="14.03" gradientTransform="translate(173.62 -26.21) rotate(72.83)" gradientUnits="userSpaceOnUse"><stop offset="0" stop-color="#e59f5e"/><stop offset="0.35" stop-color="#e2a647"/><stop offset="0.73" stop-color="#e0ab35"/><stop offset="1" stop-color="#dfad2f"/></linearGradient></defs><title>TextPwr</title><circle cx="104.57" cy="104.57" r="104.55" transform="translate(-26.21 173.62) rotate(-72.83)" style="fill:url(#linear-gradient)"/><path d="M50.36,149.87H42v21.75h-4V149.87H29.5v-3.52H50.36Z" style="fill:#fff"/><path d="M71.08,168.1v3.52H53.74V146.35h17v3.52h-13v7.19H69v3.31H57.73v7.72Z" style="fill:#fff"/><path d="M76.77,146.35l7,10,7-10h4.38l-9.25,12.81,9,12.46H90.51L83.78,162l-6.73,9.61H72.64l9-12.46-9.29-12.81Z" style="fill:#fff"/><path d="M116.57,149.87h-8.4v21.75h-4V149.87H95.71v-3.52h20.86Z" style="fill:#fff"/><path d="M126.45,138.39h7.81a3.93,3.93,0,0,1,1.85.43,4.17,4.17,0,0,1,1.38,1.16,5.57,5.57,0,0,1,.86,1.66,6.1,6.1,0,0,1,.31,1.91,6.72,6.72,0,0,1-.56,2.65,8.37,8.37,0,0,1-1.51,2.36,7.64,7.64,0,0,1-2.2,1.69,5.74,5.74,0,0,1-2.65.64h-6l-1.56,7.3h-1.92ZM132,149.15a3.72,3.72,0,0,0,1.81-.47,5,5,0,0,0,1.49-1.24,6.32,6.32,0,0,0,1-1.74,5.46,5.46,0,0,0,.38-2,4.6,4.6,0,0,0-.21-1.41,3.54,3.54,0,0,0-.6-1.14,2.85,2.85,0,0,0-.93-.77,2.56,2.56,0,0,0-1.18-.28H128l-1.92,9Z" style="fill:#fff"/><path d="M140.53,138.39h2.09l3,17.54,5.44-8.95-1.48-8.45h1.84l1.12,7,4.15-7h1.84L153.46,147l1.64,8.95,10.43-17.54h2.15L155.5,158.18h-1.67L152,148.4l-6,9.79h-1.7Z" style="fill:#fff"/><path d="M166.34,158.18l4.21-19.79h7.95a4,4,0,0,1,1.87.43,4.13,4.13,0,0,1,1.39,1.16,5.55,5.55,0,0,1,.86,1.66,6.1,6.1,0,0,1,.31,1.91,6.49,6.49,0,0,1-.45,2.36,8,8,0,0,1-1.2,2.1,7.78,7.78,0,0,1-1.77,1.63,5.85,5.85,0,0,1-2.16.91l3,7.64h-2.2l-2.84-7.3h-5.46l-1.56,7.3Zm10-9a3.64,3.64,0,0,0,1.8-.47,5.09,5.09,0,0,0,1.48-1.24,6.12,6.12,0,0,0,1-1.73,5.47,5.47,0,0,0,.36-1.94,4.63,4.63,0,0,0-.21-1.41,3.87,3.87,0,0,0-.59-1.16,2.79,2.79,0,0,0-.92-.79,2.46,2.46,0,0,0-1.18-.29h-5.91l-1.92,9Z" style="fill:#fff"/><circle cx="77.56" cy="78.57" r="9.56" style="fill:none;stroke:#fff;stroke-miterlimit:10;stroke-width:2px"/><circle cx="103.62" cy="78.57" r="9.56" style="fill:none;stroke:#fff;stroke-miterlimit:10;stroke-width:2px"/><circle cx="129.68" cy="78.57" r="9.56" style="fill:none;stroke:#fff;stroke-miterlimit:10;stroke-width:2px"/><path d="M44.2,108.47l-12.74,6.11c-3.59,1.22-1.62-.79-1.13-1.36,4.3-5.12,5.51-10.9,5.42-12.73l0-32A25.15,25.15,0,0,1,60.93,43.3h87.71a25.15,25.15,0,0,1,25.15,25.15V89.66a25.15,25.15,0,0,1-25.15,25.15H60.93a25,25,0,0,1-15.4-5.27Z" style="fill:none;stroke:#fff;stroke-linejoin:round;stroke-width:2px"/></svg>